<svg width="124" height="31" viewBox="0 0 124 31" fill="none" xmlns="http://www.w3.org/2000/svg">
<path d="M7.04824 1.2632C6.14925 1.327 5.11995 1.55027 4.36725 1.84532C2.0533 2.75172 0.742059 4.51137 0.531941 6.98602C0.500025 7.37144 0.521302 8.20873 0.571837 8.59415C0.81653 10.4388 1.6969 11.845 3.20495 12.7939C3.74221 13.1341 4.51619 13.4583 5.21836 13.6444C5.57476 13.7374 5.68912 13.7614 6.07744 13.8305C7.0243 13.9953 8.27969 14.0112 9.2691 13.8677C12.2826 13.4318 14.2773 11.8104 14.8917 9.29854C14.9343 9.13108 14.9768 8.92906 14.9875 8.85198L15.0061 8.71376H13.2081C11.4979 8.71376 11.4102 8.71642 11.4102 8.76161C11.4102 8.78819 11.3729 8.92906 11.3277 9.0726C11.224 9.41283 10.9474 9.97634 10.7665 10.2129C10.2931 10.8376 9.66274 11.2256 8.84088 11.3957C8.48448 11.4702 8.44725 11.4728 8.01903 11.4941C6.34873 11.5712 5.10133 10.9306 4.47098 9.67598C4.0401 8.81743 3.92307 7.35015 4.20234 6.28692C4.56939 4.88347 5.47901 4.04617 6.92855 3.78037C7.30357 3.71126 8.30096 3.71126 8.68396 3.78037C9.81434 3.98504 10.5936 4.55652 11.0857 5.54001C11.1947 5.75797 11.365 6.22845 11.3969 6.40919C11.4102 6.4783 11.4314 6.51286 11.474 6.52084C11.5033 6.52881 12.3091 6.53147 13.2587 6.52881L14.9875 6.52084L14.9822 6.38793C14.9742 6.2125 14.8199 5.60646 14.6976 5.27154C14.1869 3.88669 13.1975 2.80488 11.8011 2.10315C10.9447 1.6752 9.90477 1.39611 8.73716 1.28447C8.41001 1.25257 7.37804 1.23928 7.04824 1.2632Z" fill="#212121"/>
<path d="M16.57 5.2104C16.57 7.49368 16.5806 9.05665 16.5966 9.28524C16.7057 10.7525 17.1073 11.7785 17.8706 12.544C18.6206 13.2909 19.6367 13.7029 21.1713 13.881C21.6554 13.9368 22.2352 13.9634 23.0198 13.9634C23.8842 13.9634 24.1529 13.9527 24.6635 13.9075C26.0067 13.7826 27.0812 13.4371 27.7967 12.9002C28.0759 12.6929 28.4829 12.2702 28.6531 12.0151C29.0999 11.3452 29.3659 10.5212 29.4696 9.48726C29.4856 9.31448 29.4962 7.7967 29.4962 5.36191V1.5104H26.012V5.29015C26.0093 7.37141 26.004 9.12045 25.996 9.17892C25.9216 9.79825 25.7779 10.2315 25.5359 10.585C25.3949 10.7897 25.105 11.0342 24.8497 11.1672C24.3816 11.409 23.9108 11.4914 23.0198 11.4888C22.1501 11.4861 21.7352 11.4144 21.2617 11.1831C20.517 10.8189 20.1766 10.1916 20.0702 8.99286C20.0622 8.91843 20.0569 7.20661 20.0569 5.18382L20.0542 1.5104H16.57V5.2104Z" fill="#212121"/>
<path d="M31.5974 13.7374L33.3342 13.7321L35.0683 13.7241L35.0763 11.736L35.0816 9.75041L37.0285 9.75572L38.9728 9.7637L39.1191 10.0029C39.2015 10.1332 39.6989 10.9359 40.2282 11.7838C40.7574 12.6317 41.2468 13.4185 41.316 13.5301L41.4436 13.7374H43.3453C44.9518 13.7374 45.2444 13.7321 45.2337 13.7002C45.2257 13.6816 44.7763 12.9773 44.2363 12.14C42.4995 9.44207 42.4198 9.31714 42.4144 9.29322C42.4118 9.28259 42.4995 9.23208 42.6113 9.18424C43.723 8.69516 44.4225 7.89773 44.6965 6.80261C44.8561 6.16468 44.8773 5.3566 44.7497 4.73993C44.5103 3.57038 43.8214 2.69058 42.7097 2.13504C42.1804 1.86924 41.6192 1.70444 40.8 1.57154C40.5473 1.52901 40.1111 1.52635 36.0604 1.51838L31.5974 1.50774V13.7374ZM39.8372 4.01162C40.3026 4.06212 40.6245 4.203 40.8824 4.46349C41.1458 4.72929 41.2734 5.06953 41.292 5.55064C41.3186 6.25768 41.0287 6.81591 40.5021 7.07108C40.0899 7.27309 40.2441 7.26246 37.5232 7.27309L35.0816 7.28107V3.98238H37.3291C38.752 3.98238 39.6749 3.99301 39.8372 4.01162Z" fill="#212121"/>
<path d="M46.6514 13.7374L58.0482 13.7241L58.0562 12.4802L58.0615 11.2389H50.1356V1.5104H46.6514V13.7374Z" fill="#212121"/>
<path d="M86.8673 0.0133591C86.8354 0.0186753 86.7742 0.0585454 86.7343 0.0957582C86.6945 0.135629 86.3008 0.6699 85.862 1.28125C84.3938 3.33062 84.5321 3.16316 84.33 3.1605C84.2342 3.1605 83.9815 3.05418 82.9363 2.57307C80.8644 1.61617 80.8989 1.63212 80.7872 1.63478C80.609 1.63743 80.4415 1.80755 80.4441 1.98032C80.4441 2.03614 80.6569 2.82824 80.9149 3.74262C81.1729 4.65699 81.3936 5.44909 81.4069 5.50491C81.4362 5.63516 81.399 5.76274 81.3085 5.8478C81.266 5.88501 80.5026 6.28106 79.609 6.73028C78.3749 7.34695 77.9706 7.55959 77.9334 7.61541C77.8988 7.66591 77.8828 7.73768 77.8828 7.84135C77.8828 7.97691 77.8935 8.00349 77.9626 8.0726C78.0211 8.13108 78.468 8.33043 79.6914 8.84609C80.5984 9.22885 81.367 9.55846 81.4016 9.57972C81.4788 9.63022 81.5665 9.7711 81.5665 9.85084C81.5665 9.904 81.375 10.829 80.9521 12.8438C80.867 13.2478 80.8218 13.5083 80.8324 13.5642C80.8564 13.6917 81.0053 13.8193 81.1463 13.8353C81.2979 13.8539 81.0346 13.9894 84.0826 12.3282C84.3167 12.2006 84.5481 12.0863 84.5959 12.0756C84.7848 12.0358 84.8326 12.0836 85.9019 13.3807C87.2317 14.9968 87.2211 14.9862 87.3328 15.0314C87.4525 15.0819 87.5775 15.058 87.6839 14.9703C87.7929 14.8772 87.8036 14.8506 87.8541 14.5609C88.2238 12.4185 88.4525 11.2011 88.5004 11.1373C88.6094 10.9858 88.6493 10.9805 89.6786 10.9619C90.1973 10.9539 91.0112 10.938 91.4873 10.93C91.9633 10.922 92.3889 10.9034 92.4368 10.8901C92.6176 10.8343 92.724 10.6057 92.6549 10.4276C92.6336 10.3798 92.091 9.74452 91.4474 9.01621C90.8037 8.29056 90.2505 7.65263 90.2186 7.59946C90.1521 7.4958 90.1388 7.36024 90.1867 7.27518C90.2026 7.24594 90.7159 6.57079 91.3277 5.77338C92.107 4.76065 92.4474 4.29815 92.4607 4.23436C92.4873 4.09082 92.3916 3.91273 92.2559 3.8516C92.1947 3.82236 92.1043 3.80375 92.0538 3.80907C92.0032 3.81438 91.7506 3.82502 91.4926 3.83565C91.2346 3.84362 90.9925 3.85691 90.9553 3.86223C90.9181 3.86755 90.6867 3.88084 90.4367 3.89147C90.1893 3.89944 89.9553 3.91273 89.918 3.91539C89.7904 3.93134 88.8382 3.96855 88.6094 3.96855C88.3834 3.96855 88.3754 3.96589 88.285 3.87818C88.2132 3.80907 88.1839 3.74793 88.152 3.61237C88.1307 3.51668 87.9312 2.70863 87.7105 1.81552C87.2822 0.0877841 87.2902 0.109049 87.1067 0.0319649C87.0216 -0.00524793 86.979 -0.00790534 86.8673 0.0133591Z" fill="#212121"/>
<path d="M100.69 1.23605C100.448 1.252 99.8707 1.32909 99.5994 1.37959C97.6072 1.75703 96.0939 2.66875 95.1736 4.04562C94.655 4.81912 94.3252 5.81323 94.2294 6.87911C94.1975 7.22732 94.2108 8.22409 94.2533 8.52711C94.4369 9.92259 94.9662 11.0496 95.8492 11.9294C96.9343 13.0139 98.453 13.6678 100.397 13.8858C100.953 13.9469 102.017 13.9469 102.573 13.8858C105.903 13.5216 108.052 11.7992 108.64 9.02683C108.672 8.88329 108.696 8.75039 108.696 8.72647C108.696 8.69191 108.488 8.68659 106.903 8.68659H105.11L105.068 8.86469C104.999 9.13581 104.847 9.52388 104.717 9.76842C104.142 10.829 103.171 11.3845 101.754 11.4643C101.397 11.4855 100.839 11.443 100.474 11.3712C98.7217 11.0151 97.7376 9.65147 97.7376 7.5835C97.7376 5.68565 98.5568 4.37256 100.038 3.89145C100.485 3.74792 100.929 3.68413 101.514 3.68678C101.74 3.68678 101.974 3.69476 102.033 3.70273C102.405 3.75589 102.538 3.77982 102.756 3.83829C103.695 4.08815 104.384 4.66761 104.799 5.56072C104.905 5.78665 105.049 6.19865 105.092 6.39269L105.11 6.48041H106.903C108.488 6.48041 108.696 6.47509 108.696 6.44053C108.696 6.37142 108.589 5.89563 108.517 5.64312C108.134 4.29282 107.275 3.15783 106.057 2.38965C105.084 1.7783 103.746 1.35832 102.405 1.24934C102.134 1.22542 100.961 1.21745 100.69 1.23605Z" fill="#212121"/>
<path d="M63.5603 13.7103L65.2971 13.705L67.0312 13.6971L67.0392 11.7088L67.0445 9.72326L68.9914 9.72857L70.9383 9.73655L71.5527 10.72C71.8905 11.2596 72.4331 12.1341 72.7602 12.6604C73.0873 13.1867 73.3746 13.6386 73.3959 13.6652C73.4358 13.7103 73.5448 13.713 75.3215 13.7103C76.8296 13.7077 77.2073 13.6997 77.1993 13.6731C77.1913 13.6439 76.8189 13.0591 75.4598 10.9513C75.2843 10.6775 74.9651 10.1804 74.7497 9.84818L74.3614 9.24215L74.4465 9.21291C74.6034 9.15975 75.13 8.87799 75.3002 8.75572C76.2684 8.06728 76.7391 7.1343 76.7977 5.80262C76.8322 4.99988 76.6567 4.19981 76.3083 3.59643C75.779 2.67674 74.88 2.04146 73.6565 1.71984C73.3214 1.63478 72.8453 1.54706 72.5501 1.52314C72.441 1.51251 72.3214 1.49922 72.2841 1.48858C72.2469 1.48061 70.2707 1.46998 67.8903 1.46466L63.5603 1.45403V13.7103ZM72.0846 4.0164C72.5235 4.12272 72.8879 4.38321 73.0634 4.71813C73.223 5.02381 73.2523 5.16734 73.2523 5.60326C73.2523 5.96476 73.2469 6.00197 73.1725 6.21461C72.9889 6.73294 72.6724 7.02001 72.1033 7.17949C71.9011 7.23531 71.8692 7.23531 69.4728 7.24594L67.0445 7.25392V3.95261L69.4728 3.96324C71.6405 3.97121 71.9171 3.97653 72.0846 4.0164Z" fill="#212121"/>
<path d="M110.265 13.7077L112.007 13.7103H113.749L113.754 12.0039L113.762 10.2974L114.893 9.29263C116.023 8.29055 116.023 8.29055 116.068 8.34902C116.095 8.38092 116.505 8.96304 116.983 9.6435C117.462 10.324 118.076 11.1958 118.348 11.5839C118.622 11.972 119.068 12.6072 119.345 12.998L119.842 13.7103H121.93C123.582 13.7103 124.016 13.7024 124 13.6758C123.97 13.6306 123.521 13.0192 121.914 10.8529C121.135 9.80032 120.252 8.60685 119.949 8.20017C119.648 7.79083 119.207 7.19542 118.967 6.87114C118.728 6.54952 118.515 6.25979 118.494 6.22523C118.454 6.16676 118.505 6.12157 120.936 3.97917C122.3 2.77507 123.492 1.72779 123.582 1.64805C123.672 1.56831 123.742 1.49123 123.734 1.4806C123.726 1.4673 122.728 1.45667 121.515 1.45667H119.311L116.592 3.93398C115.1 5.29757 113.847 6.43522 113.813 6.4618L113.749 6.5123V1.45667H112.007L110.265 1.45933V13.7077Z" fill="#212121"/>
<path d="M5.64657 18.3049C5.63061 18.3235 5.36464 18.8897 5.05345 19.5622C4.74227 20.2347 4.4098 20.9523 4.31671 21.157C4.22096 21.3617 4.07202 21.6833 3.98425 21.8747C3.75817 22.3664 3.71828 22.4515 3.32464 23.2968C3.13048 23.7141 2.86717 24.2802 2.7395 24.5593C2.61184 24.8358 1.94425 26.2818 1.25272 27.7703C0.563859 29.2561 0 30.4788 0 30.4868C0 30.4948 0.821851 30.4974 1.82722 30.4948L3.65444 30.4868L4.12255 29.3784L4.588 28.2673L10.8357 28.2806L11.7506 30.4868L13.5752 30.4948C14.5779 30.4974 15.3997 30.4921 15.3997 30.4841C15.3997 30.4682 15.187 30.003 14.913 29.4103C14.8173 29.2056 13.7401 26.8772 13.5672 26.5024C13.514 26.3854 12.639 24.4902 11.6229 22.2894L9.77444 18.2863L7.7238 18.2783C6.0934 18.273 5.66785 18.2783 5.64657 18.3049ZM8.17862 21.9943C8.42331 22.5711 8.87812 23.6503 9.19197 24.3919C9.50581 25.1335 9.76114 25.7528 9.76114 25.7687C9.76114 25.7874 9.06962 25.7953 7.69721 25.7953C6.05617 25.7953 5.63593 25.7874 5.64657 25.7608C5.67583 25.6943 6.94717 22.6907 7.31687 21.8162C7.52699 21.3165 7.70785 20.9151 7.71848 20.9258C7.72912 20.9364 7.93658 21.4175 8.17862 21.9943Z" fill="#212121"/>
<path d="M16.4822 18.2916C16.4716 18.2996 16.4636 21.0507 16.4636 24.4052V30.5001L18.2004 30.4948L19.9345 30.4868L19.9611 22.4169L22.6076 25.891C24.0624 27.7995 25.3444 29.4794 25.4534 29.6229C25.5625 29.7665 25.7593 30.0216 25.887 30.1917L26.121 30.5001H29.8686L29.8553 18.2863H26.371V22.3345C26.371 24.5593 26.3657 26.3801 26.3578 26.3801C26.3471 26.3774 24.4082 23.839 21.0569 19.4346C20.6208 18.8604 20.2404 18.366 20.2138 18.3341L20.1633 18.2757L18.3307 18.273C17.3227 18.273 16.4902 18.281 16.4822 18.2916Z" fill="#212121"/>
<path d="M31.9431 30.5027L35.5417 30.4921C39.3637 30.4841 39.2999 30.4841 40.1883 30.3512C42.8746 29.9499 44.5209 28.7564 45.1885 26.7336C45.4252 26.0133 45.5183 25.378 45.521 24.4796C45.521 23.5625 45.4731 23.0974 45.3082 22.4595C45.1859 21.989 45.1087 21.779 44.8933 21.3431C44.0714 19.6765 42.3825 18.693 39.8292 18.3926C39.01 18.2969 38.8371 18.2943 35.3954 18.281L31.9431 18.2677V30.5027ZM38.877 20.8354C39.7707 20.9523 40.3691 21.1597 40.8452 21.5132C41.6671 22.1272 42.0447 23.2143 41.9649 24.7454C41.933 25.3993 41.8213 25.8857 41.6006 26.3402C41.0899 27.3875 40.1085 27.8899 38.3531 27.9989C38.1562 28.0095 37.4221 28.0228 36.7253 28.0254L35.454 28.0307V20.7663L37.0046 20.7796C38.2147 20.7902 38.6243 20.8008 38.877 20.8354Z" fill="#212121"/>
<path d="M72.566 18.3049C70.651 18.4245 69.0047 18.9748 67.7653 19.913C67.4807 20.1284 66.9913 20.6068 66.7679 20.8859C66.3636 21.3936 66.0604 21.9598 65.8529 22.5871C65.6322 23.2649 65.5391 23.8631 65.5391 24.6472C65.5391 25.2161 65.571 25.5589 65.6667 26.0427C66.1748 28.5626 68.1669 30.2797 71.2495 30.8511C71.933 30.9787 72.215 31 73.1778 31C73.9863 31 74.1486 30.992 74.5316 30.9389C75.6726 30.782 76.6035 30.5083 77.4599 30.0803C79.3643 29.1261 80.4654 27.603 80.7367 25.551C80.7739 25.2586 80.7819 24.299 80.75 23.9428C80.6861 23.2199 80.4707 22.4542 80.1595 21.8375C79.1701 19.8652 77.0423 18.6212 74.1752 18.3368C73.7895 18.2996 72.9517 18.2837 72.566 18.3049ZM73.8959 20.8035C74.8481 20.9311 75.5742 21.2501 76.1301 21.7817C76.5077 22.1405 76.7498 22.494 76.9439 22.9672C77.3189 23.8895 77.3509 25.1496 77.0184 26.1464C76.5795 27.4648 75.4944 28.2967 73.9464 28.5014C73.3533 28.5812 72.441 28.5439 71.9144 28.4217C70.4436 28.0814 69.4834 27.1166 69.1882 25.6839C69.1004 25.2533 69.0685 24.7217 69.1031 24.2831C69.1935 23.2145 69.502 22.4781 70.1297 21.8534C70.784 21.1969 71.6484 20.846 72.7921 20.7716C73.0182 20.7557 73.6858 20.7769 73.8959 20.8035Z" fill="#212121"/>
<path d="M51.182 30.7741H54.6662L54.6715 28.7911L54.6795 26.8109H56.6184C57.685 26.8136 58.56 26.8162 58.5653 26.8215C58.568 26.8242 58.7701 27.1485 59.0148 27.5445C59.2595 27.9379 59.7143 28.6689 60.0255 29.1659C60.3367 29.663 60.6878 30.2292 60.8075 30.4205L61.0256 30.7741H62.9299C64.4406 30.7741 64.8289 30.7661 64.8183 30.7395C64.813 30.7236 64.6587 30.479 64.4805 30.2026C63.4033 28.5386 62.007 26.359 62.007 26.3404C62.007 26.3298 62.1001 26.2793 62.2144 26.2288C62.7198 26.0055 63.1054 25.7397 63.4512 25.3809C63.9326 24.8811 64.2092 24.3176 64.3528 23.5468C64.3981 23.2996 64.4087 23.132 64.4114 22.6934C64.414 22.0714 64.3688 21.7657 64.1986 21.2793C64.0018 20.7158 63.7784 20.3623 63.3395 19.929C62.6001 19.1954 61.7171 18.8153 60.2782 18.6079C60.0069 18.5681 59.4829 18.5628 55.5785 18.5548L51.182 18.5442V30.7741ZM59.6611 21.0959C60.2808 21.2261 60.6745 21.5823 60.8287 22.1618C60.8926 22.401 60.8926 22.9594 60.8261 23.1959C60.6505 23.8339 60.1292 24.2512 59.443 24.3043C59.3393 24.3123 58.2222 24.3203 56.9588 24.323L54.6662 24.3283V21.0454H57.0413C59.2755 21.0454 59.4271 21.048 59.6611 21.0959Z" fill="#212121"/>
<path d="M82.3538 30.7741H93.764L93.7586 29.5301L93.7507 28.2888L85.8513 28.2755L85.838 18.5468H82.3538V30.7741Z" fill="#212121"/>
<path d="M95.4928 30.7741H106.903V28.2755L98.977 28.2888V18.5468H95.4928V30.7741Z" fill="#212121"/>
</svg>
